{"asset":{"version":"2.0","generator":"The Gang: subset of CC0 Imperial China Palace and Garden by 3dassets.dev"},"scene":0,"scenes":[{"nodes":[0]}],"nodes":[{"name":"131-gate-tower","children":[1,2,3,4,5,6,7,8,9,10]},{"name":"131-gate-tower/0","translation":[0,2.4400000810623172,0],"scale":[4.099999904632568,4.099999904632568,4.099999904632568],"mesh":0},{"name":"131-gate-tower/1","translation":[0,5.807999968528748,0],"scale":[4.039999961853027,4.039999961853027,4.039999961853027],"mesh":1},{"name":"131-gate-tower/2","translation":[0,4.939999938011169,-0.2250000238418579],"scale":[3.700000047683716,3.700000047683716,3.700000047683716],"mesh":2},{"name":"131-gate-tower/3","translation":[0,5.039999961853027,1.8820000290870667],"scale":[3.2200000286102295,3.2200000286102295,3.2200000286102295],"mesh":3},{"name":"131-gate-tower/4","translation":[0,6.635000109672546,0],"scale":[5.599999904632568,5.599999904632568,5.599999904632568],"mesh":4},{"name":"131-gate-tower/5","translation":[0,8.734999895095825,0],"scale":[5.599999904632568,5.599999904632568,5.599999904632568],"mesh":5},{"name":"131-gate-tower/6","translation":[0,9.728799819946289,0],"scale":[2.299999952316284,2.299999952316284,2.299999952316284],"mesh":6},{"name":"131-gate-tower/bell","translation":[-2.3,5.890000116229057,0],"scale":[0.549999937415123,0.549999937415123,0.549999937415123],"mesh":7},{"name":"131-gate-tower/drum/lacquer","translation":[2.3999999701976775,4.62000011920929,0],"scale":[0.5,0.5,0.5],"mesh":8},{"name":"131-gate-tower/drum/bronze","translation":[2.3999999701976775,4.62000011920929,0],"scale":[0.5049999952316284,0.5049999952316284,0.5049999952316284],"mesh":9}],"meshes":[{"name":"131-gate-tower/0","primitives":[{"attributes":{"POSITION":13,"NORMAL":14},"mode":4,"material":0,"indices":2}]},{"name":"131-gate-tower/1","primitives":[{"attributes":{"POSITION":15,"NORMAL":16},"mode":4,"material":5,"indices":3}]},{"name":"131-gate-tower/2","primitives":[{"attributes":{"POSITION":17,"NORMAL":18},"mode":4,"material":1,"indices":4}]},{"name":"131-gate-tower/3","primitives":[{"attributes":{"POSITION":19,"NORMAL":11},"mode":4,"material":6,"indices":1}]},{"name":"131-gate-tower/4","primitives":[{"attributes":{"POSITION":20,"NORMAL":21},"mode":4,"material":4,"indices":5}]},{"name":"131-gate-tower/5","primitives":[{"attributes":{"POSITION":22,"NORMAL":23},"mode":4,"material":2,"indices":6}]},{"name":"131-gate-tower/6","primitives":[{"attributes":{"POSITION":12,"NORMAL":10},"mode":4,"material":3,"indices":0}]},{"name":"131-gate-tower/bell","primitives":[{"attributes":{"POSITION":24,"NORMAL":25},"mode":4,"material":3,"indices":7}]},{"name":"131-gate-tower/drum/lacquer","primitives":[{"attributes":{"POSITION":26,"NORMAL":27},"mode":4,"material":5,"indices":8}]},{"name":"131-gate-tower/drum/bronze","primitives":[{"attributes":{"POSITION":28,"NORMAL":29},"mode":4,"material":3,"indices":9}]}],"materials":[{"name":"stone","pbrMetallicRoughness":{"baseColorFactor":[0.63,0.62,0.58,1],"roughnessFactor":0.95,"metallicFactor":0}},{"name":"plaster","pbrMetallicRoughness":{"baseColorFactor":[0.92,0.89,0.82,1],"metallicFactor":0}},{"name":"glaze","pbrMetallicRoughness":{"baseColorFactor":[0.74,0.55,0.16,1],"roughnessFactor":0.35,"metallicFactor":0.3}},{"name":"bronze","pbrMetallicRoughness":{"baseColorFactor":[0.47,0.36,0.18,1],"roughnessFactor":0.42,"metallicFactor":0.9}},{"name":"timber","pbrMetallicRoughness":{"baseColorFactor":[0.3,0.19,0.13,1],"roughnessFactor":0.9,"metallicFactor":0}},{"name":"lacquer","pbrMetallicRoughness":{"baseColorFactor":[0.62,0.13,0.11,1],"roughnessFactor":0.45,"metallicFactor":0.05}},{"name":"paper","pbrMetallicRoughness":{"baseColorFactor":[0.95,0.92,0.82,1],"roughnessFactor":0.9,"metallicFactor":0},"emissiveFactor":[0.5,0.44,0.3]}],"accessors":[{"type":"SCALAR","componentType":5123,"count":648,"bufferView":0},{"type":"SCALAR","componentType":5123,"count":72,"bufferView":1},{"type":"SCALAR","componentType":5123,"count":9996,"bufferView":2},{"type":"SCALAR","componentType":5123,"count":7512,"bufferView":3},{"type":"SCALAR","componentType":5123,"count":972,"bufferView":4},{"type":"SCALAR","componentType":5123,"count":3042,"bufferView":5},{"type":"SCALAR","componentType":5123,"count":894,"bufferView":6},{"type":"SCALAR","componentType":5123,"count":1368,"bufferView":7},{"type":"SCALAR","componentType":5123,"count":432,"bufferView":8},{"type":"SCALAR","componentType":5123,"count":864,"bufferView":9},{"type":"VEC3","componentType":5126,"count":184,"bufferView":10},{"type":"VEC3","componentType":5126,"count":56,"bufferView":11},{"type":"VEC3","componentType":5126,"count":184,"max":[1.0,0.10864589373455001,0.0913113803521836],"min":[-1.0,-0.10864589373455001,-0.0913113803521836],"bufferView":12},{"type":"VEC3","componentType":5126,"count":3682,"max":[1.0,0.5951719718008972,0.6585283974730675],"min":[-1.0,-0.5951719718008972,-0.6585283974730675],"bufferView":13},{"type":"VEC3","componentType":5126,"count":3682,"bufferView":14},{"type":"VEC3","componentType":5126,"count":3482,"max":[1.0,0.48710592974639116,0.6109195226905118],"min":[-1.0,-0.48710592974639116,-0.6109195226905118],"bufferView":15},{"type":"VEC3","componentType":5126,"count":3482,"bufferView":16},{"type":"VEC3","componentType":5126,"count":283,"max":[1.0,0.29728080080568864,0.5337687307351909],"min":[-1.0,-0.29728080080568864,-0.5337687307351909],"bufferView":17},{"type":"VEC3","componentType":5126,"count":283,"bufferView":18},{"type":"VEC3","componentType":5126,"count":56,"max":[1.0,0.3556321909237953,0.0012207403790398877],"min":[-1.0,-0.3556321909237953,-0.0012207403790398877],"bufferView":19},{"type":"VEC3","componentType":5126,"count":2117,"max":[1.0,0.4990691854609821,0.6429029206213569],"min":[-1.0,-0.4990691854609821,-0.6429029206213569],"bufferView":20},{"type":"VEC3","componentType":5126,"count":2117,"bufferView":21},{"type":"VEC3","componentType":5126,"count":617,"max":[1.0,0.1794488357188635,0.6429029206213569],"min":[-1.0,-0.1794488357188635,-0.6429029206213569],"bufferView":22},{"type":"VEC3","componentType":5126,"count":617,"bufferView":23},{"type":"VEC3","componentType":5126,"count":293,"max":[0.7878353221228676,1.0,0.8000427259132664],"min":[-0.7878353221228676,-1.0,-0.8000427259132664],"bufferView":24},{"type":"VEC3","componentType":5126,"count":293,"bufferView":25},{"type":"VEC3","componentType":5126,"count":95,"max":[0.9848628192999054,0.5600146488845484,1.0],"min":[-0.9848628192999054,-0.5600146488845484,-1.0],"bufferView":26},{"type":"VEC3","componentType":5126,"count":95,"bufferView":27},{"type":"VEC3","componentType":5126,"count":190,"max":[0.9848628192999054,0.35648670918912323,1.0],"min":[-0.9848628192999054,-0.35648670918912323,-1.0],"bufferView":28},{"type":"VEC3","componentType":5126,"count":190,"bufferView":29}],"bufferViews":[{"buffer":0,"byteOffset":0,"byteLength":1296,"target":34963},{"buffer":0,"byteOffset":1296,"byteLength":144,"target":34963},{"buffer":0,"byteOffset":1440,"byteLength":19992,"target":34963},{"buffer":0,"byteOffset":21432,"byteLength":15024,"target":34963},{"buffer":0,"byteOffset":36456,"byteLength":1944,"target":34963},{"buffer":0,"byteOffset":38400,"byteLength":6084,"target":34963},{"buffer":0,"byteOffset":44484,"byteLength":1788,"target":34963},{"buffer":0,"byteOffset":46272,"byteLength":2736,"target":34963},{"buffer":0,"byteOffset":49008,"byteLength":864,"target":34963},{"buffer":0,"byteOffset":49872,"byteLength":1728,"target":34963},{"buffer":0,"byteOffset":51600,"byteLength":2208,"target":34962},{"buffer":0,"byteOffset":53808,"byteLength":672,"target":34962},{"buffer":0,"byteOffset":54480,"byteLength":2208,"target":34962},{"buffer":0,"byteOffset":56688,"byteLength":44184,"target":34962},{"buffer":0,"byteOffset":100872,"byteLength":44184,"target":34962},{"buffer":0,"byteOffset":145056,"byteLength":41784,"target":34962},{"buffer":0,"byteOffset":186840,"byteLength":41784,"target":34962},{"buffer":0,"byteOffset":228624,"byteLength":3396,"target":34962},{"buffer":0,"byteOffset":232020,"byteLength":3396,"target":34962},{"buffer":0,"byteOffset":235416,"byteLength":672,"target":34962},{"buffer":0,"byteOffset":236088,"byteLength":25404,"target":34962},{"buffer":0,"byteOffset":261492,"byteLength":25404,"target":34962},{"buffer":0,"byteOffset":286896,"byteLength":7404,"target":34962},{"buffer":0,"byteOffset":294300,"byteLength":7404,"target":34962},{"buffer":0,"byteOffset":301704,"byteLength":3516,"target":34962},{"buffer":0,"byteOffset":305220,"byteLength":3516,"target":34962},{"buffer":0,"byteOffset":308736,"byteLength":1140,"target":34962},{"buffer":0,"byteOffset":309876,"byteLength":1140,"target":34962},{"buffer":0,"byteOffset":311016,"byteLength":2280,"target":34962},{"buffer":0,"byteOffset":313296,"byteLength":2280,"target":34962}],"buffers":[{"byteLength":315576,"uri":"data:application/octet-stream;base64,"}],"extensionsUsed":[],"extensionsRequired":[]}
