{"asset":{"version":"2.0","generator":"The Gang: subset of CC0 Imperial China Palace and Garden by 3dassets.dev"},"scene":0,"scenes":[{"nodes":[0]}],"nodes":[{"name":"130-ceremonial-hall","children":[1,2,3,4,5,6,7,8,9,10,11,12,13]},{"name":"130-ceremonial-hall/0","translation":[0,1.0700000464916228,0.6649999618530273],"scale":[7.570000171661377,7.570000171661377,7.570000171661377],"mesh":0},{"name":"130-ceremonial-hall/1","translation":[0,5.398000001907349,0],"scale":[6.236000061035156,6.236000061035156,6.236000061035156],"mesh":1},{"name":"130-ceremonial-hall/2","translation":[0,5.129999935626984,0],"scale":[6.099999904632568,6.099999904632568,6.099999904632568],"mesh":2},{"name":"130-ceremonial-hall/3","translation":[0,5.080000042915344,3.952000141143799],"scale":[5.369999885559082,5.369999885559082,5.369999885559082],"mesh":3},{"name":"130-ceremonial-hall/4","translation":[0,6.530000030994415,0],"scale":[8.100000381469727,8.100000381469727,8.100000381469727],"mesh":4},{"name":"130-ceremonial-hall/5","translation":[0,9.330000162124634,0],"scale":[8.100000381469727,8.100000381469727,8.100000381469727],"mesh":5},{"name":"130-ceremonial-hall/6","translation":[0,12.260000228881836,0],"scale":[2.299999952316284,2.299999952316284,2.299999952316284],"mesh":6},{"name":"130-ceremonial-hall/screen-left/lacquer","translation":[-1.375,2.7999999999999994,3.899999975785613],"scale":[1.7000000953674324,1.7000000953674324,1.7000000953674324],"mesh":7},{"name":"130-ceremonial-hall/screen-left/paper","translation":[-1.3749999403953552,2.8000001184642316,3.8819999691098928],"scale":[1.645000148564577,1.645000148564577,1.645000148564577],"mesh":8},{"name":"130-ceremonial-hall/screen-left/timber","translation":[-1.3749999403953552,3.5215001463890077,3.9140000351238995],"scale":[1.2449999451637268,1.2449999451637268,1.2449999451637268],"mesh":9},{"name":"130-ceremonial-hall/screen-right/lacquer","translation":[1.375,2.7999999999999994,3.899999975785613],"scale":[1.7000000953674324,1.7000000953674324,1.7000000953674324],"mesh":10},{"name":"130-ceremonial-hall/screen-right/paper","translation":[1.3749999403953552,2.8000001184642316,3.8819999691098928],"scale":[1.645000148564577,1.645000148564577,1.645000148564577],"mesh":11},{"name":"130-ceremonial-hall/screen-right/timber","translation":[1.3749999403953552,3.5215001463890077,3.9140000351238995],"scale":[1.2449999451637268,1.2449999451637268,1.2449999451637268],"mesh":12}],"meshes":[{"name":"130-ceremonial-hall/0","primitives":[{"attributes":{"POSITION":14,"NORMAL":15},"mode":4,"material":0,"indices":4}]},{"name":"130-ceremonial-hall/1","primitives":[{"attributes":{"POSITION":16,"NORMAL":17},"mode":4,"material":5,"indices":5}]},{"name":"130-ceremonial-hall/2","primitives":[{"attributes":{"POSITION":18,"NORMAL":19},"mode":4,"material":1,"indices":6}]},{"name":"130-ceremonial-hall/3","primitives":[{"attributes":{"POSITION":20,"NORMAL":13},"mode":4,"material":6,"indices":3}]},{"name":"130-ceremonial-hall/4","primitives":[{"attributes":{"POSITION":21,"NORMAL":22},"mode":4,"material":4,"indices":7}]},{"name":"130-ceremonial-hall/5","primitives":[{"attributes":{"POSITION":23,"NORMAL":24},"mode":4,"material":2,"indices":8}]},{"name":"130-ceremonial-hall/6","primitives":[{"attributes":{"POSITION":25,"NORMAL":10},"mode":4,"material":3,"indices":0}]},{"name":"130-ceremonial-hall/screen-left/lacquer","primitives":[{"attributes":{"POSITION":26,"NORMAL":12},"mode":4,"material":5,"indices":2}]},{"name":"130-ceremonial-hall/screen-left/paper","primitives":[{"attributes":{"POSITION":27,"NORMAL":11},"mode":4,"material":6,"indices":1}]},{"name":"130-ceremonial-hall/screen-left/timber","primitives":[{"attributes":{"POSITION":28,"NORMAL":29},"mode":4,"material":4,"indices":9}]},{"name":"130-ceremonial-hall/screen-right/lacquer","primitives":[{"attributes":{"POSITION":26,"NORMAL":12},"mode":4,"material":5,"indices":2}]},{"name":"130-ceremonial-hall/screen-right/paper","primitives":[{"attributes":{"POSITION":27,"NORMAL":11},"mode":4,"material":6,"indices":1}]},{"name":"130-ceremonial-hall/screen-right/timber","primitives":[{"attributes":{"POSITION":28,"NORMAL":29},"mode":4,"material":4,"indices":9}]}],"materials":[{"name":"stone","pbrMetallicRoughness":{"baseColorFactor":[0.63,0.62,0.58,1],"roughnessFactor":0.95,"metallicFactor":0}},{"name":"plaster","pbrMetallicRoughness":{"baseColorFactor":[0.92,0.89,0.82,1],"metallicFactor":0}},{"name":"glaze","pbrMetallicRoughness":{"baseColorFactor":[0.74,0.55,0.16,1],"roughnessFactor":0.35,"metallicFactor":0.3}},{"name":"bronze","pbrMetallicRoughness":{"baseColorFactor":[0.47,0.36,0.18,1],"roughnessFactor":0.42,"metallicFactor":0.9}},{"name":"timber","pbrMetallicRoughness":{"baseColorFactor":[0.3,0.19,0.13,1],"roughnessFactor":0.9,"metallicFactor":0}},{"name":"lacquer","pbrMetallicRoughness":{"baseColorFactor":[0.62,0.13,0.11,1],"roughnessFactor":0.45,"metallicFactor":0.05}},{"name":"paper","pbrMetallicRoughness":{"baseColorFactor":[0.95,0.92,0.82,1],"roughnessFactor":0.9,"metallicFactor":0},"emissiveFactor":[0.5,0.44,0.3]}],"accessors":[{"type":"SCALAR","componentType":5123,"count":648,"bufferView":0},{"type":"SCALAR","componentType":5123,"count":36,"bufferView":1},{"type":"SCALAR","componentType":5123,"count":1944,"bufferView":2},{"type":"SCALAR","componentType":5123,"count":216,"bufferView":3},{"type":"SCALAR","componentType":5123,"count":17772,"bufferView":4},{"type":"SCALAR","componentType":5123,"count":19128,"bufferView":5},{"type":"SCALAR","componentType":5123,"count":1296,"bufferView":6},{"type":"SCALAR","componentType":5123,"count":6666,"bufferView":7},{"type":"SCALAR","componentType":5123,"count":1614,"bufferView":8},{"type":"SCALAR","componentType":5123,"count":324,"bufferView":9},{"type":"VEC3","componentType":5126,"count":184,"bufferView":10},{"type":"VEC3","componentType":5126,"count":28,"bufferView":11},{"type":"VEC3","componentType":5126,"count":555,"bufferView":12},{"type":"VEC3","componentType":5126,"count":168,"bufferView":13},{"type":"VEC3","componentType":5126,"count":6956,"max":[1.0,0.141361735892819,0.8236030152287362],"min":[-1.0,-0.141361735892819,-0.8236030152287362],"bufferView":14},{"type":"VEC3","componentType":5126,"count":6956,"bufferView":15},{"type":"VEC3","componentType":5126,"count":8036,"max":[1.0,0.6891689809869685,0.770989104892117],"min":[-1.0,-0.6891689809869685,-0.770989104892117],"bufferView":16},{"type":"VEC3","componentType":5126,"count":8036,"bufferView":17},{"type":"VEC3","componentType":5126,"count":374,"max":[1.0,0.6606036561174352,0.7049165318765831],"min":[-1.0,-0.6606036561174352,-0.7049165318765831],"bufferView":18},{"type":"VEC3","componentType":5126,"count":374,"bufferView":19},{"type":"VEC3","componentType":5126,"count":168,"max":[1.0,0.7309183019501327,0.06591998046815394],"min":[-1.0,-0.7309183019501327,-0.06591998046815394],"bufferView":20},{"type":"VEC3","componentType":5126,"count":4993,"max":[1.0,0.6703695791497544,0.7778252510147404],"min":[-1.0,-0.6703695791497544,-0.7778252510147404],"bufferView":21},{"type":"VEC3","componentType":5126,"count":4993,"bufferView":22},{"type":"VEC3","componentType":5126,"count":1234,"max":[1.0,0.3629566331980346,0.7778252510147404],"min":[-1.0,-0.3629566331980346,-0.7778252510147404],"bufferView":23},{"type":"VEC3","componentType":5126,"count":1234,"bufferView":24},{"type":"VEC3","componentType":5126,"count":184,"max":[1.0,0.10864589373455001,0.0913113803521836],"min":[-1.0,-0.10864589373455001,-0.0913113803521836],"bufferView":25},{"type":"VEC3","componentType":5126,"count":555,"max":[0.7647633289590137,1.0,0.01770073549607837],"min":[-0.7647633289590137,-1.0,-0.01770073549607837],"bufferView":26},{"type":"VEC3","componentType":5126,"count":28,"max":[0.7568285164952544,1.0,0.0024414807580797754],"min":[-0.7568285164952544,-1.0,-0.0024414807580797754],"bufferView":27},{"type":"VEC3","componentType":5126,"count":252,"max":[1.0,0.7417828913235878,0.014038514358958708],"min":[-1.0,-0.7417828913235878,-0.014038514358958708],"bufferView":28},{"type":"VEC3","componentType":5126,"count":252,"bufferView":29}],"bufferViews":[{"buffer":0,"byteOffset":0,"byteLength":1296,"target":34963},{"buffer":0,"byteOffset":1296,"byteLength":72,"target":34963},{"buffer":0,"byteOffset":1368,"byteLength":3888,"target":34963},{"buffer":0,"byteOffset":5256,"byteLength":432,"target":34963},{"buffer":0,"byteOffset":5688,"byteLength":35544,"target":34963},{"buffer":0,"byteOffset":41232,"byteLength":38256,"target":34963},{"buffer":0,"byteOffset":79488,"byteLength":2592,"target":34963},{"buffer":0,"byteOffset":82080,"byteLength":13332,"target":34963},{"buffer":0,"byteOffset":95412,"byteLength":3228,"target":34963},{"buffer":0,"byteOffset":98640,"byteLength":648,"target":34963},{"buffer":0,"byteOffset":99288,"byteLength":2208,"target":34962},{"buffer":0,"byteOffset":101496,"byteLength":336,"target":34962},{"buffer":0,"byteOffset":101832,"byteLength":6660,"target":34962},{"buffer":0,"byteOffset":108492,"byteLength":2016,"target":34962},{"buffer":0,"byteOffset":110508,"byteLength":83472,"target":34962},{"buffer":0,"byteOffset":193980,"byteLength":83472,"target":34962},{"buffer":0,"byteOffset":277452,"byteLength":96432,"target":34962},{"buffer":0,"byteOffset":373884,"byteLength":96432,"target":34962},{"buffer":0,"byteOffset":470316,"byteLength":4488,"target":34962},{"buffer":0,"byteOffset":474804,"byteLength":4488,"target":34962},{"buffer":0,"byteOffset":479292,"byteLength":2016,"target":34962},{"buffer":0,"byteOffset":481308,"byteLength":59916,"target":34962},{"buffer":0,"byteOffset":541224,"byteLength":59916,"target":34962},{"buffer":0,"byteOffset":601140,"byteLength":14808,"target":34962},{"buffer":0,"byteOffset":615948,"byteLength":14808,"target":34962},{"buffer":0,"byteOffset":630756,"byteLength":2208,"target":34962},{"buffer":0,"byteOffset":632964,"byteLength":6660,"target":34962},{"buffer":0,"byteOffset":639624,"byteLength":336,"target":34962},{"buffer":0,"byteOffset":639960,"byteLength":3024,"target":34962},{"buffer":0,"byteOffset":642984,"byteLength":3024,"target":34962}],"buffers":[{"byteLength":646008,"uri":"data:application/octet-stream;base64,"}],"extensionsUsed":[],"extensionsRequired":[]}
