{"asset":{"version":"2.0","generator":"The Gang: subset of CC0 Imperial China Palace and Garden by 3dassets.dev"},"scene":0,"scenes":[{"nodes":[0]}],"nodes":[{"name":"087-palace-wall-moon-gate","children":[1,2,3,4,5,6]},{"name":"087-palace-wall-moon-gate/0","translation":[0,1.6150000095367432,0],"scale":[2,2,2],"mesh":0},{"name":"087-palace-wall-moon-gate/1","translation":[0,1.899999976158142,0],"scale":[2,2,2],"mesh":1},{"name":"087-palace-wall-moon-gate/2","translation":[0,3.4049999713897705,0],"scale":[2.049999952316284,2.049999952316284,2.049999952316284],"mesh":2},{"name":"087-palace-wall-moon-gate/moon-leaf/timber","translation":[-0.589999985694885,1.8000000596046448,0.08250000089406967],"scale":[1.1200000643730164,1.1200000643730164,1.1200000643730164],"mesh":3},{"name":"087-palace-wall-moon-gate/moon-leaf/wood","translation":[-0.575000000046566,1.8,0.06],"scale":[1.1428792476654053,1.1428792476654053,1.1428792476654053],"mesh":4},{"name":"087-palace-wall-moon-gate/moon-leaf/bronze","translation":[-0.2400000035762786,1.8000000149011612,0.15249999560415745],"scale":[0.08000001311302185,0.08000001311302185,0.08000001311302185],"mesh":5}],"meshes":[{"name":"087-palace-wall-moon-gate/0","primitives":[{"attributes":{"POSITION":8,"NORMAL":9},"mode":4,"material":0,"indices":1}]},{"name":"087-palace-wall-moon-gate/1","primitives":[{"attributes":{"POSITION":10,"NORMAL":11},"mode":4,"material":1,"indices":2}]},{"name":"087-palace-wall-moon-gate/2","primitives":[{"attributes":{"POSITION":6,"NORMAL":7},"mode":4,"material":2,"indices":0}]},{"name":"087-palace-wall-moon-gate/moon-leaf/timber","primitives":[{"attributes":{"POSITION":12,"NORMAL":13},"mode":4,"material":4,"indices":3}]},{"name":"087-palace-wall-moon-gate/moon-leaf/wood","primitives":[{"attributes":{"POSITION":14,"NORMAL":15},"mode":4,"material":5,"indices":4}]},{"name":"087-palace-wall-moon-gate/moon-leaf/bronze","primitives":[{"attributes":{"POSITION":16,"NORMAL":17},"mode":4,"material":3,"indices":5}]}],"materials":[{"name":"stone","pbrMetallicRoughness":{"baseColorFactor":[0.63,0.62,0.58,1],"roughnessFactor":0.95,"metallicFactor":0}},{"name":"plaster","pbrMetallicRoughness":{"baseColorFactor":[0.92,0.89,0.82,1],"metallicFactor":0}},{"name":"glaze","pbrMetallicRoughness":{"baseColorFactor":[0.74,0.55,0.16,1],"roughnessFactor":0.35,"metallicFactor":0.3}},{"name":"bronze","pbrMetallicRoughness":{"baseColorFactor":[0.47,0.36,0.18,1],"roughnessFactor":0.42,"metallicFactor":0.9}},{"name":"timber","pbrMetallicRoughness":{"baseColorFactor":[0.3,0.19,0.13,1],"roughnessFactor":0.9,"metallicFactor":0}},{"name":"wood","pbrMetallicRoughness":{"baseColorFactor":[0.56,0.4,0.24,1],"roughnessFactor":0.8,"metallicFactor":0}}],"accessors":[{"type":"SCALAR","componentType":5123,"count":552,"bufferView":0},{"type":"SCALAR","componentType":5123,"count":1188,"bufferView":1},{"type":"SCALAR","componentType":5123,"count":972,"bufferView":2},{"type":"SCALAR","componentType":5123,"count":972,"bufferView":3},{"type":"SCALAR","componentType":5123,"count":2916,"bufferView":4},{"type":"SCALAR","componentType":5123,"count":120,"bufferView":5},{"type":"VEC3","componentType":5126,"count":297,"max":[1.0,0.08532975249488815,0.1610156559953612],"min":[-1.0,-0.08532975249488815,-0.1610156559953612],"bufferView":6},{"type":"VEC3","componentType":5126,"count":297,"bufferView":7},{"type":"VEC3","componentType":5126,"count":672,"max":[1.0,0.8074892422254097,0.1400189214758751],"min":[-1.0,-0.8074892422254097,-0.1400189214758751],"bufferView":8},{"type":"VEC3","componentType":5126,"count":672,"bufferView":9},{"type":"VEC3","componentType":5126,"count":283,"max":[1.0,0.7000335703604236,0.09497360148930327],"min":[-1.0,-0.7000335703604236,-0.09497360148930327],"bufferView":10},{"type":"VEC3","componentType":5126,"count":283,"bufferView":11},{"type":"VEC3","componentType":5126,"count":285,"max":[0.49992370372631,1.0,0.06030457472457045],"min":[-0.49992370372631,-1.0,-0.06030457472457045],"bufferView":12},{"type":"VEC3","componentType":5126,"count":285,"bufferView":13},{"type":"VEC3","componentType":5126,"count":828,"max":[0.4978484450819422,1.0,0.03064058351390118],"min":[-0.4978484450819422,-1.0,-0.03064058351390118],"bufferView":14},{"type":"VEC3","componentType":5126,"count":828,"bufferView":15},{"type":"VEC3","componentType":5126,"count":87,"max":[1.0,0.9510483108005005,0.7187108981597339],"min":[-1.0,-0.9510483108005005,-0.7187108981597339],"bufferView":16},{"type":"VEC3","componentType":5126,"count":87,"bufferView":17}],"bufferViews":[{"buffer":0,"byteOffset":0,"byteLength":1104,"target":34963},{"buffer":0,"byteOffset":1104,"byteLength":2376,"target":34963},{"buffer":0,"byteOffset":3480,"byteLength":1944,"target":34963},{"buffer":0,"byteOffset":5424,"byteLength":1944,"target":34963},{"buffer":0,"byteOffset":7368,"byteLength":5832,"target":34963},{"buffer":0,"byteOffset":13200,"byteLength":240,"target":34963},{"buffer":0,"byteOffset":13440,"byteLength":3564,"target":34962},{"buffer":0,"byteOffset":17004,"byteLength":3564,"target":34962},{"buffer":0,"byteOffset":20568,"byteLength":8064,"target":34962},{"buffer":0,"byteOffset":28632,"byteLength":8064,"target":34962},{"buffer":0,"byteOffset":36696,"byteLength":3396,"target":34962},{"buffer":0,"byteOffset":40092,"byteLength":3396,"target":34962},{"buffer":0,"byteOffset":43488,"byteLength":3420,"target":34962},{"buffer":0,"byteOffset":46908,"byteLength":3420,"target":34962},{"buffer":0,"byteOffset":50328,"byteLength":9936,"target":34962},{"buffer":0,"byteOffset":60264,"byteLength":9936,"target":34962},{"buffer":0,"byteOffset":70200,"byteLength":1044,"target":34962},{"buffer":0,"byteOffset":71244,"byteLength":1044,"target":34962}],"buffers":[{"byteLength":72288,"uri":"data:application/octet-stream;base64,"}],"extensionsUsed":[],"extensionsRequired":[]}
