{"asset":{"version":"2.0","generator":"The Gang: subset of CC0 Imperial China Palace and Garden by 3dassets.dev"},"scene":0,"scenes":[{"nodes":[0]}],"nodes":[{"name":"134-water-pavilion","children":[1,2,3,4,5,6]},{"name":"134-water-pavilion/0","translation":[0,1.399999976158142,0],"scale":[2.5,2.5,2.5],"mesh":0},{"name":"134-water-pavilion/1","translation":[0,1.6800000071525574,0],"scale":[2.3499999046325684,2.3499999046325684,2.3499999046325684],"mesh":1},{"name":"134-water-pavilion/2","translation":[0,3.7177000045776367,0],"scale":[2.496000051498413,2.496000051498413,2.496000051498413],"mesh":2},{"name":"134-water-pavilion/3","translation":[0,5.924999952316284,0],"scale":[3.299999952316284,3.299999952316284,3.299999952316284],"mesh":3},{"name":"134-water-pavilion/4","translation":[0,6.119999885559082,0],"scale":[3.299999952316284,3.299999952316284,3.299999952316284],"mesh":4},{"name":"134-water-pavilion/5","translation":[0,7.299999952316284,0],"scale":[0.39999985694885254,0.39999985694885254,0.39999985694885254],"mesh":5}],"meshes":[{"name":"134-water-pavilion/0","primitives":[{"attributes":{"POSITION":7,"NORMAL":8},"mode":4,"material":0,"indices":2}]},{"name":"134-water-pavilion/1","primitives":[{"attributes":{"POSITION":9,"NORMAL":6},"mode":4,"material":4,"indices":0}]},{"name":"134-water-pavilion/2","primitives":[{"attributes":{"POSITION":10,"NORMAL":11},"mode":4,"material":5,"indices":3}]},{"name":"134-water-pavilion/3","primitives":[{"attributes":{"POSITION":12,"NORMAL":13},"mode":4,"material":3,"indices":4}]},{"name":"134-water-pavilion/4","primitives":[{"attributes":{"POSITION":14,"NORMAL":15},"mode":4,"material":1,"indices":5}]},{"name":"134-water-pavilion/5","primitives":[{"attributes":{"POSITION":16,"NORMAL":17},"mode":4,"material":2,"indices":1}]}],"materials":[{"name":"stone","pbrMetallicRoughness":{"baseColorFactor":[0.63,0.62,0.58,1],"roughnessFactor":0.95,"metallicFactor":0}},{"name":"glaze","pbrMetallicRoughness":{"baseColorFactor":[0.74,0.55,0.16,1],"roughnessFactor":0.35,"metallicFactor":0.3}},{"name":"bronze","pbrMetallicRoughness":{"baseColorFactor":[0.47,0.36,0.18,1],"roughnessFactor":0.42,"metallicFactor":0.9}},{"name":"timber","pbrMetallicRoughness":{"baseColorFactor":[0.3,0.19,0.13,1],"roughnessFactor":0.9,"metallicFactor":0}},{"name":"wood","pbrMetallicRoughness":{"baseColorFactor":[0.56,0.4,0.24,1],"roughnessFactor":0.8,"metallicFactor":0}},{"name":"lacquer","pbrMetallicRoughness":{"baseColorFactor":[0.62,0.13,0.11,1],"roughnessFactor":0.45,"metallicFactor":0.05}}],"accessors":[{"type":"SCALAR","componentType":5123,"count":324,"bufferView":0},{"type":"SCALAR","componentType":5123,"count":420,"bufferView":1},{"type":"SCALAR","componentType":5123,"count":7896,"bufferView":2},{"type":"SCALAR","componentType":5123,"count":2784,"bufferView":3},{"type":"SCALAR","componentType":5123,"count":1170,"bufferView":4},{"type":"SCALAR","componentType":5123,"count":570,"bufferView":5},{"type":"VEC3","componentType":5126,"count":92,"bufferView":6},{"type":"VEC3","componentType":5126,"count":2936,"max":[1.0,0.5600146488845484,1.0],"min":[-1.0,-0.5600146488845484,-1.0],"bufferView":7},{"type":"VEC3","componentType":5126,"count":2936,"bufferView":8},{"type":"VEC3","componentType":5126,"count":92,"max":[1.0,0.03405865657521287,1.0],"min":[-1.0,-0.03405865657521287,-1.0],"bufferView":9},{"type":"VEC3","componentType":5126,"count":1468,"max":[1.0,0.7041840876491592,0.9520249031037324],"min":[-1.0,-0.7041840876491592,-0.9520249031037324],"bufferView":10},{"type":"VEC3","componentType":5126,"count":1468,"bufferView":11},{"type":"VEC3","componentType":5126,"count":994,"max":[1.0,0.2621234778893399,1.0],"min":[-1.0,-0.2621234778893399,-1.0],"bufferView":12},{"type":"VEC3","componentType":5126,"count":994,"bufferView":13},{"type":"VEC3","componentType":5126,"count":531,"max":[1.0,0.2515030365916929,1.0],"min":[-1.0,-0.2515030365916929,-1.0],"bufferView":14},{"type":"VEC3","componentType":5126,"count":531,"bufferView":15},{"type":"VEC3","componentType":5126,"count":90,"max":[0.7311624500259407,1.0,0.749961851863155],"min":[-0.7311624500259407,-1.0,-0.749961851863155],"bufferView":16},{"type":"VEC3","componentType":5126,"count":90,"bufferView":17}],"bufferViews":[{"buffer":0,"byteOffset":0,"byteLength":648,"target":34963},{"buffer":0,"byteOffset":648,"byteLength":840,"target":34963},{"buffer":0,"byteOffset":1488,"byteLength":15792,"target":34963},{"buffer":0,"byteOffset":17280,"byteLength":5568,"target":34963},{"buffer":0,"byteOffset":22848,"byteLength":2340,"target":34963},{"buffer":0,"byteOffset":25188,"byteLength":1140,"target":34963},{"buffer":0,"byteOffset":26328,"byteLength":1104,"target":34962},{"buffer":0,"byteOffset":27432,"byteLength":35232,"target":34962},{"buffer":0,"byteOffset":62664,"byteLength":35232,"target":34962},{"buffer":0,"byteOffset":97896,"byteLength":1104,"target":34962},{"buffer":0,"byteOffset":99000,"byteLength":17616,"target":34962},{"buffer":0,"byteOffset":116616,"byteLength":17616,"target":34962},{"buffer":0,"byteOffset":134232,"byteLength":11928,"target":34962},{"buffer":0,"byteOffset":146160,"byteLength":11928,"target":34962},{"buffer":0,"byteOffset":158088,"byteLength":6372,"target":34962},{"buffer":0,"byteOffset":164460,"byteLength":6372,"target":34962},{"buffer":0,"byteOffset":170832,"byteLength":1080,"target":34962},{"buffer":0,"byteOffset":171912,"byteLength":1080,"target":34962}],"buffers":[{"byteLength":172992,"uri":"data:application/octet-stream;base64,"}],"extensionsUsed":[],"extensionsRequired":[]}
