{"asset":{"version":"2.0","generator":"The Gang: subset of CC0 Imperial China Palace and Garden by 3dassets.dev"},"scene":0,"scenes":[{"nodes":[0]}],"nodes":[{"name":"064-palace-wall-straight","children":[1,2,3]},{"name":"064-palace-wall-straight/0","translation":[0,0.25,0],"scale":[2,2,2],"mesh":0},{"name":"064-palace-wall-straight/1","translation":[0,1.5,0],"scale":[2,2,2],"mesh":1},{"name":"064-palace-wall-straight/2","translation":[0,2.6050000190734863,0],"scale":[2.049999952316284,2.049999952316284,2.049999952316284],"mesh":2}],"meshes":[{"name":"064-palace-wall-straight/0","primitives":[{"attributes":{"POSITION":2,"NORMAL":3},"mode":4,"material":0,"indices":0}]},{"name":"064-palace-wall-straight/1","primitives":[{"attributes":{"POSITION":4,"NORMAL":3},"mode":4,"material":1,"indices":0}]},{"name":"064-palace-wall-straight/2","primitives":[{"attributes":{"POSITION":5,"NORMAL":6},"mode":4,"material":2,"indices":1}]}],"materials":[{"name":"stone","pbrMetallicRoughness":{"baseColorFactor":[0.63,0.62,0.58,1],"roughnessFactor":0.95,"metallicFactor":0}},{"name":"plaster","pbrMetallicRoughness":{"baseColorFactor":[0.92,0.89,0.82,1],"metallicFactor":0}},{"name":"glaze","pbrMetallicRoughness":{"baseColorFactor":[0.74,0.55,0.16,1],"roughnessFactor":0.35,"metallicFactor":0.3}}],"accessors":[{"type":"SCALAR","componentType":5123,"count":324,"bufferView":0},{"type":"SCALAR","componentType":5123,"count":552,"bufferView":1},{"type":"VEC3","componentType":5126,"count":92,"max":[1.0,0.1250038148136845,0.1250038148136845],"min":[-1.0,-0.1250038148136845,-0.1250038148136845],"bufferView":2},{"type":"VEC3","componentType":5126,"count":92,"bufferView":3},{"type":"VEC3","componentType":5126,"count":92,"max":[1.0,0.50007629627369,0.09497360148930327],"min":[-1.0,-0.50007629627369,-0.09497360148930327],"bufferView":4},{"type":"VEC3","componentType":5126,"count":297,"max":[1.0,0.08532975249488815,0.1610156559953612],"min":[-1.0,-0.08532975249488815,-0.1610156559953612],"bufferView":5},{"type":"VEC3","componentType":5126,"count":297,"bufferView":6}],"bufferViews":[{"buffer":0,"byteOffset":0,"byteLength":648,"target":34963},{"buffer":0,"byteOffset":648,"byteLength":1104,"target":34963},{"buffer":0,"byteOffset":1752,"byteLength":1104,"target":34962},{"buffer":0,"byteOffset":2856,"byteLength":1104,"target":34962},{"buffer":0,"byteOffset":3960,"byteLength":1104,"target":34962},{"buffer":0,"byteOffset":5064,"byteLength":3564,"target":34962},{"buffer":0,"byteOffset":8628,"byteLength":3564,"target":34962}],"buffers":[{"byteLength":12192,"uri":"data:application/octet-stream;base64,"}],"extensionsUsed":[],"extensionsRequired":[]}
